<?xml version="1.0" encoding="UTF-8" standalone="no"?>
<svg
   xmlns:dc="http://purl.org/dc/elements/1.1/"
   xmlns:cc="http://creativecommons.org/ns#"
   xmlns:rdf="http://www.w3.org/1999/02/22-rdf-syntax-ns#"
   xmlns:svg="http://www.w3.org/2000/svg"
   xmlns="http://www.w3.org/2000/svg"
   xmlns:xlink="http://www.w3.org/1999/xlink"
   xmlns:sodipodi="http://sodipodi.sourceforge.net/DTD/sodipodi-0.dtd"
   xmlns:inkscape="http://www.inkscape.org/namespaces/inkscape"
   version="1.1"
   id="svg10"
   width="1224"
   height="1057.3333"
   viewBox="0 0 1224 1057.3333"
   sodipodi:docname="logo-cuadrado-white.svg"
   inkscape:version="1.0.1 (c497b03c, 2020-09-10)">
  <metadata
     id="metadata16">
    <rdf:RDF>
      <cc:Work
         rdf:about="">
        <dc:format>image/svg+xml</dc:format>
        <dc:type
           rdf:resource="http://purl.org/dc/dcmitype/StillImage" />
        <dc:title></dc:title>
      </cc:Work>
    </rdf:RDF>
  </metadata>
  <defs
     id="defs14" />
  <sodipodi:namedview
     pagecolor="#ffffff"
     bordercolor="#666666"
     borderopacity="1"
     objecttolerance="10"
     gridtolerance="10"
     guidetolerance="10"
     inkscape:pageopacity="0"
     inkscape:pageshadow="2"
     inkscape:window-width="1601"
     inkscape:window-height="833"
     id="namedview12"
     showgrid="false"
     inkscape:zoom="0.60503392"
     inkscape:cx="632.38459"
     inkscape:cy="522.89216"
     inkscape:window-x="94"
     inkscape:window-y="66"
     inkscape:window-maximized="0"
     inkscape:current-layer="g18"
     inkscape:document-rotation="0" />
  <g
     inkscape:groupmode="layer"
     inkscape:label="Image"
     id="g18">
    <image
       sodipodi:absref="/Users/diegograssino/OneDrive/web-projects/fidenoa/working/img/logo-cuadrado-bn.png"
       xlink:href="logo-cuadrado-bn.png"
       width="1224"
       height="1057.3333"
       preserveAspectRatio="none"
       id="image20" />
    <path
       style="fill:#000000;stroke-width:1.33333"
       d="m 616.23503,1055.9009 -8.43163,-1.0942 -10.90171,-2.7134 -10.90169,-2.7134 -13.63107,-6.725 -13.63106,-6.7249 -10.26166,-8.2551 -10.26164,-8.2551 -8.53458,-10.7099 -8.53458,-10.70993 -7.15102,-14.66667 -7.15104,-14.66666 -2.74496,-10.04924 -2.74496,-10.04924 -2.00219,-13.2841 -2.00219,-13.28409 v -20 -20 l 1.92371,-12.66666 1.92371,-12.66667 3.44524,-12 3.44524,-12 6.58742,-13.33333 6.58744,-13.33334 8.31863,-10.46578 8.31863,-10.46579 10.661,-8.52984 10.66098,-8.52985 10.05614,-5.1962 10.05614,-5.19621 L 590,754.13514 600.66667,750.65396 614,748.66816 l 13.33333,-1.9858 11.16222,-0.008 11.16221,-0.008 13.83305,2.05402 13.83304,2.054 10.05474,3.2822 10.05473,3.2822 6.95,3.48822 6.95001,3.48823 8.71186,5.75307 8.71185,5.75306 8.52112,8.42251 8.52111,8.42249 5.91289,8 5.91288,8 5.19828,10.3252 5.19827,10.32521 3.38946,10.34146 3.38947,10.34146 2.59973,15.1325 2.59975,15.1325 v 21.77101 21.77103 l -1.42385,10.23712 -1.42386,10.23713 -2.50389,9.79012 -2.50389,9.79014 -4.15475,10.40256 -4.15473,10.40256 -6.18355,9.94153 -6.18356,9.94151 -7.66812,8.9095 -7.66812,8.9094 -10.77555,8.1196 -10.77553,8.1196 -9.62363,4.6163 -9.62364,4.6163 -11.33333,3.2722 -11.33333,3.2721 -12,1.4705 -12,1.4706 -12,-0.1653 -12,-0.1653 -8.43164,-1.0942 z m 33.85342,-64.01568 7.91155,-1.44808 6.66667,-3.30344 6.66666,-3.30344 6.89291,-6.76384 6.89291,-6.76382 4.10436,-8.15132 4.10437,-8.15131 2.81777,-10.66667 2.81778,-10.66666 0.64814,-26 0.64815,-26 -2.68023,-12.95161 -2.68021,-12.9516 -4.82521,-10.03203 -4.8252,-10.03203 -6.95778,-7.10692 -6.95776,-7.10692 -8,-3.90945 -8,-3.90944 h -16.6947 -16.6947 l -8.88506,4.37409 -8.88506,4.37411 -6.2904,6.95923 -6.2904,6.95924 -3.76598,8 -3.76599,8 -2.93917,10.66666 -2.93918,10.66667 -0.04,30.66666 -0.04,30.66667 3.69626,12 3.69625,12 3.49911,6 3.4991,6 6.39914,6.77343 6.39913,6.77342 7.26705,3.55834 7.26707,3.55833 7.08715,1.17904 7.08714,1.17903 4.08846,0.15588 4.08845,0.15586 7.91155,-1.44808 z m 249.29678,64.05518 -7.94811,-1.2482 -7.3056,-2.1238 -7.30559,-2.1238 -8.74694,-4.4049 -8.74694,-4.4048 -8.38121,-6.3003 -8.38121,-6.3003 -6.06324,-7.4433 -6.06326,-7.4432 -3.77434,-7.477 -3.77435,-7.47691 -2.40396,-7.93029 -2.40396,-7.9303 0.0149,-16 0.0149,-16 2.28878,-8.66666 2.2888,-8.66667 4.57427,-9.33333 4.57428,-9.33334 6.79667,-7.60446 6.79666,-7.60447 9.75195,-6.52249 9.75193,-6.52249 10.3773,-4.32008 10.37728,-4.32007 14.15289,-3.16159 14.15291,-3.16158 13.80793,-1.39138 13.80795,-1.39138 h 25.19205 25.19207 l -0.0107,-9.66667 -0.0107,-9.66667 -1.3783,-8.49436 -1.37831,-8.49434 -2.75536,-5.50566 -2.75535,-5.50564 -4.1896,-4.45017 -4.1896,-4.45017 -4.84965,-2.50022 -4.84964,-2.50022 -8.76675,-1.4005 -8.76674,-1.40049 -7.71695,0.86963 -7.71693,0.86964 -6.70988,2.4685 -6.70987,2.4685 -5.56825,5.67942 -5.56826,5.67942 -2.0552,5.8343 -2.05521,5.8343 v 3.1657 3.1657 h -40 -40 v -2.72288 -2.72288 l 2.11889,-10.25819 2.11888,-10.25819 3.90847,-7.87756 3.90845,-7.87754 4.73298,-6.44759 4.73296,-6.44758 7.78613,-7.02712 7.78615,-7.02714 7.36216,-4.44069 7.36216,-4.44069 10.42472,-4.47895 10.42472,-4.47893 10.263,-2.66284 10.263,-2.66284 13.737,-1.60068 13.737,-1.6007 15.33333,0.76832 15.33333,0.76832 10.58546,2.18754 10.58545,2.18752 10.42857,3.80596 10.4286,3.80596 8.0682,4.90117 8.0682,4.90117 8.1466,7.52018 8.1466,7.52018 6.1945,9.46507 6.1946,9.46506 3.5003,10.59063 3.5002,10.59064 1.4097,11.24265 1.4097,11.24266 0.01,76.70165 0.01,76.7016 1.9591,12.9969 1.9591,12.9969 3.4356,9.6698 3.4357,9.6698 0.7528,3 0.7529,3 h -40.7263 -40.7263 l -2.8556,-7.6322 -2.85561,-7.6322 -0.68893,-4.0345 -0.68895,-4.0345 -0.55387,-1.7824 -0.55385,-1.7824 -8.69361,7.9661 -8.69362,7.9661 -8.99226,4.7253 -8.99226,4.7253 -9.97821,2.8417 -9.97823,2.8417 -16,0.5103 -16,0.5103 -7.9481,-1.2482 z m 60.94641,-63.73231 7.66496,-2.72999 7.49157,-4.97261 7.49156,-4.97263 4.47708,-6.09977 4.47708,-6.09979 0.0331,-25.66666 0.033,-25.66667 -21,0.0465 -21,0.0465 -10.28619,1.83414 -10.28617,1.83416 -7.108,3.25415 -7.10799,3.25415 -4.88572,4.2897 -4.8857,4.28971 -3.41187,6.97363 -3.41188,6.97361 -0.81559,8.73391 -0.81558,8.7339 2.1962,6.61211 2.19618,6.61209 5.86471,5.75578 5.86469,5.75577 7.11312,2.54191 7.11312,2.54189 12.66667,-0.57277 12.66667,-0.57278 7.66497,-2.72998 z M 190.66667,901.99997 V 751.99998 h 37.25164 37.25162 l 0.70524,5.66666 0.70523,5.66667 0.81229,11.46023 0.8123,11.46022 7.51861,-7.88248 7.51861,-7.88248 9.1911,-6.11022 9.19109,-6.11023 9.70268,-3.76756 9.70267,-3.76756 11.65978,-2.03329 11.65978,-2.0333 10.82534,0.0465 10.82535,0.0465 10,1.80367 10,1.80366 7.94783,2.81439 7.94781,2.81437 7.14971,4.74715 7.14972,4.74713 5.63046,5.8763 5.63048,5.87629 4.91902,8.31511 4.919,8.3151 3.32029,10.06356 3.32029,10.06356 2.21144,11.33333 2.21144,11.33334 0.59094,107.66666 L 449.53936,1052 H 409.4972 369.45504 l -0.41648,-103.66667 -0.41648,-103.66666 -2.5352,-7.06695 -2.53521,-7.06693 -5.05894,-5.74727 -5.05893,-5.74725 -7.05023,-3.1761 -7.05024,-3.1761 -17.33333,-0.009 -17.33333,-0.009 -7.64728,3.58403 -7.6473,3.58402 -4.69197,3.57875 -4.69197,3.57875 -4.66075,6.3492 -4.66073,6.34918 v 106.15471 106.15469 h -40 -40 V 902.00073 Z M 57.381176,692.99998 l -5.850531,-3 -2.431989,-4.64587 -2.431989,-4.64586 V 463.16123 245.61419 L 31,245.13914 15.333333,244.66409 10.467862,241.63977 5.6023909,238.61546 3.4678621,233.28074 1.3333333,227.94603 v -6.99382 -6.99382 l 2.4841272,-4.64586 2.4841271,-4.64587 4.5158734,-2.66629 4.515872,-2.66631 L 31,198.85993 46.666667,198.38579 V 106.83876 15.291729 l 2.484126,-4.645865 2.484128,-4.6458642 4.515872,-2.6666666 4.515874,-2.66666655 h 134.000003 134 l 3.95022,1.99999995 3.95023,1.9999999 2.93783,4.3643875 2.93781,4.364387 0.89581,5.30228 0.89583,5.302278 -0.89583,5.302279 -0.89581,5.30228 -2.93781,4.364386 -2.93783,4.364388 -3.95023,2 -3.95022,2 -117,0.354712 -117.000003,0.354712 v 75.311954 75.31195 h 61.134373 61.13436 l 4.53231,1.51475 4.53229,1.51476 3.57169,3.31037 3.5717,3.31039 1.55202,6.46957 1.55203,6.46959 -0.87015,5.15034 -0.87014,5.15035 -2.61446,4.29913 -2.61445,4.29912 -5.63912,2.55987 -5.63912,2.55987 -61.66667,0.0293 -61.666663,0.0292 -0.0075,214.99999 -0.0075,214.99999 -1.377136,4.9586 -1.377137,4.95859 -3.203123,3.80669 -3.203124,3.80669 -5.233662,1.56806 -5.233664,1.56804 h -5.896122 -5.89612 l -5.85053,-3 z m 882.272854,1.10738 -5.01263,-1.80184 -2.19391,-1.81944 -2.1939,-1.81944 -2.12679,-4.66666 -2.1268,-4.66667 -0.36047,-216.85342 -0.36046,-216.85343 -14.3062,-0.49229 -14.3062,-0.49231 -4.51587,-2.65427 -4.51588,-2.65426 -2.48412,-4.64587 -2.48413,-4.64587 0.003,-8.0208 0.003,-8.0208 2.33125,-4.66666 2.33127,-4.66667 5.94919,-3 5.94918,-3 h 12.99047 12.99047 l 0.39368,-91 0.39368,-90.999994 2.66666,-5.296218 2.66667,-5.2962177 L 936,3.3704486 940.66667,0.66666665 h 134.90223 134.9022 l 3.6821,2.74905135 3.682,2.7490515 2.7491,3.6820557 2.749,3.6820558 v 10.471118 10.471119 l -2.749,3.682055 -2.7491,3.682056 -3.6815,2.749051 -3.6815,2.749052 -117.9027,0.361453 -117.90283,0.361455 v 75.30521 75.30521 h 61.13433 61.1344 l 4.5323,1.52213 4.5323,1.52215 2.4698,2.14137 2.4699,2.14139 2.0919,4.00315 2.0918,4.00314 -0.061,8.256 -0.06,8.256 -2.5318,4.41067 -2.5317,4.41067 -5.9187,3 -5.9187,3 h -61.7174 -61.71753 v 201.3052 201.30521 l 117.90283,0.36145 117.9027,0.36146 3.6815,2.74905 3.6815,2.74905 2.7491,3.68206 2.749,3.68205 v 10.47112 10.47112 l -2.749,3.68205 -2.7491,3.68205 -3.6816,2.74906 -3.6816,2.74905 -132.9026,0.28795 -132.90273,0.28794 -5.01264,-1.80184 z m -564.51856,-3.48421 -4.19786,-1.29588 -4.0697,-4.63513 -4.06971,-4.63515 -0.77868,-4.36184 -0.77867,-4.36184 L 361.62043,343.0977 362,14.862085 l 2.74905,-3.681991 2.74906,-3.6819912 3.68205,-2.7490515 3.68205,-2.7490514 h 10.47112 10.47112 l 3.68206,2.7490514 3.68205,2.7490515 2.74905,3.6820552 2.74906,3.682056 V 346.66666 678.4711 l -2.74906,3.68205 -2.74905,3.68206 -3.424,2.55639 -3.42401,2.55639 -8.4936,0.48552 -8.49362,0.48552 z m 113.48946,0.0612 -4.04173,-1.27612 -3.1052,-2.89293 -3.1052,-2.89293 -1.85307,-4.43502 -1.85306,-4.43501 V 345.79715 16.841971 l 2.63834,-5.450092 2.63835,-5.4500916 4.26547,-2.5196748 4.26546,-2.51967491 9.46232,-0.60725477 9.46232,-0.60725475 18.4814,1.53918653 18.48139,1.5391465 17.4858,3.2326831 17.48581,3.232683 14,4.1524527 14,4.152453 13.96418,5.449162 13.96418,5.449163 16.70248,8.518665 16.7025,8.518665 18.66666,12.449193 L 706,70.370572 l 16.66667,13.958224 16.66666,13.958224 16.94003,17.49999 16.94004,17.49999 9.59836,12.3565 9.59837,12.3565 8.33299,12.66666 8.333,12.66667 7.39039,14 7.39037,14 5.96596,14.86858 5.96596,14.86858 4.07087,14.20076 4.07086,14.20074 2.62451,13.59991 2.62451,13.5999 1.58198,15.10883 1.58199,15.10884 -0.71365,28.88859 -0.71364,28.88859 -2.73914,16 -2.73912,16 -3.29997,12.66667 -3.29996,12.66667 -4.16933,11.79694 -4.16935,11.79696 -5.36177,12.20304 -5.36179,12.20305 -6.73021,12 -6.7302,12 -8.03586,12 -8.03585,12 -10.0712,12.66667 -10.0712,12.66667 -18.71731,18.69557 -18.7173,18.69557 L 718,612.44925 l -14.66667,11.7248 -15.07825,10.0564 -15.07825,10.05638 -18.92175,9.76319 -18.92175,9.76319 -7.33333,2.92928 -7.33333,2.92926 -14.90724,5.07642 -14.90724,5.07641 -15.3547,3.44377 -15.35469,3.44378 -13.73807,1.97117 -13.73806,1.97117 -20,0.65297 -20,0.65299 -4.04174,-1.27612 z m 67.1582,-52.78502 16.4498,-3.29523 16.21687,-5.34828 16.21687,-5.34828 20,-9.80741 20,-9.8074 14,-9.24219 14,-9.24217 L 686,575.05028 l 13.33333,-10.75811 15.62263,-15.58408 15.62263,-15.58408 9.91888,-12.22867 9.91888,-12.22865 8.93298,-13.33333 8.933,-13.33334 9.10419,-18.66666 9.10419,-18.66667 4.74533,-14.32541 4.74532,-14.32541 3.30475,-16.34126 3.30473,-16.34125 1.40895,-18.613 1.40893,-18.613 -1.4068,-18.72033 -1.40681,-18.72033 -3.24354,-16.02848 -3.24354,-16.02848 -5.49851,-15.97152 -5.49849,-15.97152 -7.2562,-14.88628 -7.2562,-14.88628 -11.85147,-17.78039 -11.85145,-17.78038 -13.39794,-15.51466 -13.39793,-15.51465 -12.70289,-11.68262 -12.7029,-11.68263 -13.02246,-10.13605 -13.02247,-10.1361 -9.83243,-6.476644 -9.83241,-6.476648 -13.76215,-7.65316 -13.76214,-7.65316 L 604.39667,69.610695 587.33333,62.814343 575.45764,59.389821 563.58195,55.965297 550.79097,53.406714 538,50.848132 530.33333,49.937101 522.66667,49.026069 V 346.01858 643.01109 L 531,642.10281 l 8.33333,-0.9083 16.4498,-3.29522 z"
       id="path22" />
    <path
       style="fill:#ffffff;stroke-width:1.6528"
       d="m 56.817804,692.19607 c -10.102171,-5.48138 -9.524377,8.42945 -9.524377,-229.3062 V 245.70745 L 32.005028,244.79339 C 23.596408,244.29066 14.61551,242.92093 12.047477,241.74958 5.6123366,238.8143 2.661213,232.23651 2.704581,220.92506 2.766149,204.86662 8.650737,200.51423 31.948357,199.29561 l 15.34507,-0.80265 V 106.82959 C 47.293427,6.3922284 47.06441,8.8093896 57.070186,3.6406318 63.241447,0.45269854 319.75055,-0.49544394 329.10406,2.6351045 c 9.45431,3.1642882 13.21939,9.3456825 13.18873,21.6529295 -0.0276,11.070344 -3.23608,17.50817 -10.38235,20.831946 -2.58066,1.200283 -41.35435,1.76581 -121.06759,1.76581 H 93.571824 v 76.0288 76.02879 l 61.566796,0.0364 c 57.27552,0.0337 62.05726,0.25893 68.60348,3.23028 8.08563,3.67013 10.76822,8.66666 10.73247,19.98996 -0.0334,10.59307 -3.85688,17.09785 -11.95431,20.3378 -5.76718,2.30751 -15.28159,2.684 -67.82829,2.684 H 93.571824 v 216.6802 c 0,238.91612 0.609067,224.95904 -10.057593,230.47498 -5.972138,3.0883 -20.857183,2.98745 -26.696427,-0.18089 z"
       id="path19" />
    <path
       style="fill:#ffffff;stroke-width:1.6528"
       d="m 374.23469,689.43244 c -2.44482,-1.14769 -6.16362,-4.29971 -8.264,-7.0045 l -3.81888,-4.9178 -0.49239,-323.16298 c -0.27082,-177.73963 -0.0273,-327.100537 0.54124,-331.91312 0.83017,-7.027747 2.15797,-9.874484 6.74548,-14.4619982 5.32312,-5.3231197 6.43124,-5.711849 16.28228,-5.711849 9.671,0 11.05855,0.4603691 16.30721,5.4104851 4.73444,4.4651571 5.92396,6.9919781 6.80806,14.4619991 0.58921,4.978332 0.84972,154.456583 0.5789,332.173893 -0.47816,313.78707 -0.58271,323.25563 -3.61885,327.7347 -1.71956,2.53677 -4.43044,5.31018 -6.02419,6.16313 -5.08005,2.71875 -20.28147,3.46413 -25.04486,1.22804 z"
       id="path21" />
    <path
       style="fill:#ffffff;stroke-width:1.6528"
       d="m 369.8118,684.04445 -6.85762,-6.19546 0.42522,-330.77 c 0.42148,-327.871 0.45418,-330.808448 3.73081,-335.157024 1.81808,-2.4128643 4.75165,-5.2984947 6.51906,-6.4125121 4.66621,-2.9411716 20.10238,-2.4023707 25.10633,0.8763382 9.38729,6.1507879 8.87823,-13.1484913 8.75061,331.7528879 -0.0647,174.79214 -0.64227,323.56712 -1.28353,330.61109 -1.51704,16.66389 -4.05565,19.44502 -18.83206,20.63112 -10.52859,0.84514 -10.81182,0.75907 -17.55882,-5.33644 z"
       id="path23" />
    <path
       style="fill:#ffffff;stroke-width:1.6528"
       d="m 489.4174,690.28899 c -1.81808,-0.44292 -4.68333,-2.02835 -6.36721,-3.52317 -8.08961,-7.18134 -7.68159,10.90919 -7.68159,-340.58509 0,-371.199757 -1.25114,-337.9700936 12.92891,-343.3855059 6.68623,-2.55349429 9.88822,-2.63115492 34.00102,-0.8246572 46.30511,3.4691146 82.3657,12.9949611 122.60901,32.3886761 37.2672,17.959485 67.44139,39.852238 103.74908,75.274677 71.97571,70.22083 106.44656,153.47991 102.66771,247.97825 -2.48444,62.12896 -18.40559,113.48727 -50.43459,162.69149 -53.93369,82.85504 -142.11719,145.11907 -231.61571,163.53771 -26.20951,5.39386 -69.7514,8.90943 -79.85663,6.44762 z m 61.89607,-50.91979 c 49.03897,-9.56183 95.41232,-31.22032 133.96072,-62.56583 C 746.50193,527.01621 786.031,466.58649 799.43673,402.27839 814.53426,329.85459 801.03945,259.83683 760.01882,197.7588 715.18026,129.90295 642.75766,76.177194 570.40459,57.095951 556.85212,53.521838 530.25777,48.53859 524.7361,48.53859 c -3.00549,0 -3.0891,8.052096 -3.0891,297.50398 v 297.50398 h 4.1212 c 2.26666,0 13.76203,-1.87981 25.54527,-4.17735 z"
       id="path25" />
    <path
       style="fill:#ffffff;stroke-width:1.6528"
       d="m 935.4761,691.62718 c -2.83562,-1.72909 -5.9966,-5.5561 -7.0244,-8.50445 -1.3529,-3.88094 -1.86873,-64.99074 -1.86873,-221.38615 V 245.71107 l -14.8488,-0.96201 c -22.31601,-1.44579 -28.124,-6.12673 -28.124,-22.66648 0,-17.06835 7.7881,-23.1392 29.68456,-23.1392 h 13.28824 l 0.006,-91.31719 c 0.006,-87.505336 0.14021,-91.537022 3.21716,-96.583313 6.12313,-10.0421397 -0.39878,-9.5643639 138.09107,-10.11614367 69.996,-0.27888271 131.3101,-0.0219591 136.2534,0.57094027 7.0732,0.8483646 9.9779,2.1378685 13.6356,6.0534515 4.1601,4.4533799 4.6478,6.1653209 4.6478,16.3151659 0,10.776316 -0.2902,11.62986 -5.8399,17.179607 l -5.8399,5.839892 H 1092.6343 974.51417 v 76.0288 76.02879 l 60.74043,0.0932 c 42.5358,0.0653 62.457,0.68454 66.4679,2.066 7.7732,2.67729 13.2797,11.16936 13.2797,20.48001 0,9.79717 -3.7049,16.32123 -11.5379,20.31729 -6.1749,3.1503 -9.6733,3.32188 -67.7307,3.32188 h -61.21943 v 201.64158 201.64159 l 112.80363,0.0182 c 62.0419,0.01 115.6009,0.48052 119.0198,1.04561 3.8051,0.62891 8.1323,2.98732 11.1564,6.08037 4.5019,4.60475 4.9402,6.04647 4.9402,16.25369 0,10.61725 -0.3043,11.50497 -5.8399,17.04065 l -5.8399,5.8399 -135.0613,-0.007 c -129.82968,-0.007 -135.26104,-0.12793 -140.217,-3.14999 z"
       id="path27" />
    <path
       style="fill:#ffffff;stroke-width:1.6528"
       d="m 897.36534,1055.0363 c -36.16613,-6.4821 -66.40839,-31.4045 -75.8473,-62.50513 -2.97989,-9.81858 -3.04761,-39.70242 -0.11478,-50.65424 9.26498,-34.59738 37.22461,-57.17357 82.89438,-66.9336 12.70953,-2.71614 24.81194,-3.74523 52.67635,-4.47918 l 36.17583,-0.95286 -0.88665,-16.09046 c -1.26447,-22.94762 -6.90245,-34.70572 -20.7428,-43.25953 -4.08445,-2.52433 -9.31798,-3.63337 -20.02723,-4.24398 -16.59663,-0.9463 -28.15429,1.94222 -36.76625,9.18871 -5.54785,4.66821 -11.18823,15.40297 -11.24682,21.40491 l -0.0363,3.7188 h -39.66719 c -21.81696,0 -39.6672,-0.32326 -39.6672,-0.71835 0,-0.39509 1.10575,-5.97491 2.45723,-12.3996 5.75102,-27.33941 24.08538,-49.59709 52.13539,-63.29169 25.38348,-12.39275 38.50845,-15.14425 72.67297,-15.23506 25.44497,-0.0676 30.51176,0.38219 42.12435,3.73976 46.25108,13.37267 70.64058,40.935 76.79468,86.78494 1.0007,7.45571 1.7407,45.58782 1.7478,90.07759 0.013,81.10097 0.6815,90.87587 7.5133,109.89007 2.2241,6.1902 4.0439,11.5825 4.0439,11.9828 0,0.4004 -18.0865,0.7279 -40.1922,0.7279 h -40.1922 l -3.63094,-11.1564 c -1.99705,-6.136 -3.62021,-12.0861 -3.60704,-13.2224 0.0385,-3.3235 -1.47693,-2.5232 -11.32122,5.9787 -10.40008,8.9819 -21.55551,15.1067 -34.5213,18.9535 -10.76097,3.1927 -41.29191,4.7518 -52.76876,2.6948 z m 63.10003,-62.30584 c 10.47056,-3.26894 20.52915,-10.1114 27.14679,-18.46685 l 5.16798,-6.5251 -0.45578,-26.1532 -0.45579,-26.15317 -16.528,-0.51014 c -49.41811,-1.52529 -74.97702,12.22784 -78.04959,41.99816 -1.85449,17.96831 5.64978,30.60008 21.98863,37.0129 9.43948,3.7049 27.12056,3.18863 41.18576,-1.2026 z"
       id="path29" />
    <path
       style="fill:#ffffff;stroke-width:1.6528"
       d="m 613.87062,1054.9616 c -32.77061,-4.8053 -65.1492,-22.9632 -84.18214,-47.2092 -10.58497,-13.48422 -20.85055,-34.70968 -25.81422,-53.37438 -3.59722,-13.52645 -4.31026,-20.33683 -4.9428,-47.20988 -0.68956,-29.29508 -0.45188,-32.67917 3.54047,-50.4104 11.58234,-51.44056 42.71744,-87.37212 88.59266,-102.24061 38.31887,-12.41943 89.24718,-7.5977 121.88003,11.53919 13.78562,8.08431 38.11348,32.89942 45.89035,46.80947 14.07131,25.16853 20.65288,53.61208 20.64251,89.21076 -0.0167,57.39888 -17.86486,99.24405 -54.45789,127.67685 -27.63694,21.474 -70.4292,31.1791 -111.14897,25.2082 z m 49.99106,-66.97246 c 18.01656,-8.08536 30.45821,-26.8696 34.56673,-52.18846 2.56719,-15.82049 2.13811,-57.01027 -0.73626,-70.6745 -2.81944,-13.40321 -10.03415,-28.67759 -17.63403,-37.33339 -2.88239,-3.28287 -9.56058,-8.1495 -14.8404,-10.81475 -8.81048,-4.44752 -11.03477,-4.8459 -27.05614,-4.8459 -15.20482,0 -18.46204,0.51503 -25.25233,3.99286 -15.23525,7.80314 -25.81643,22.32325 -31.98408,43.89041 -2.53837,8.87621 -3.08298,16.51716 -3.08298,43.25457 0,28.27562 0.44825,33.9388 3.46715,43.80445 7.54471,24.65577 23.1606,40.94413 43.37939,45.24746 11.59064,2.46692 28.08699,0.64233 39.17295,-4.33275 z"
       id="path31" />
    <path
       style="fill:#ffffff;stroke-width:1.6528"
       d="M 191.08702,902.20974 V 752.63135 h 36.99057 36.99057 l 1.18609,17.40153 1.18609,17.40152 11.04959,-10.42362 c 22.00575,-20.75911 44.63345,-29.37868 76.94103,-29.30914 50.8115,0.10938 81.42659,26.79676 90.02948,78.4793 0.9079,5.45424 2.16618,58.44714 2.79618,117.76199 l 1.14547,107.84517 h -39.8483 -39.84827 l -0.47125,-105.36597 c -0.43555,-97.38124 -0.6971,-105.867 -3.45134,-111.97719 -7.58883,-16.83558 -18.46745,-22.3128 -44.31669,-22.3128 -16.20567,0 -19.00057,0.45129 -26.72097,4.31456 -4.74224,2.37301 -12.15512,8.03575 -16.47306,12.58386 l -7.8508,8.26931 v 107.24412 107.24411 h -39.66719 -39.6672 z"
       id="path33" />
  </g>
</svg>
